<svg width="512" height="512" xmlns="http://www.w3.org/2000/svg">
	<g id="svg">
		<g fill="#000000">
			<path d="M70.3 496 c-7.9 -1.2 -17.6 -6.2 -23.6 -12.2 -6.4 -6.4 -10.3 -14.2 -11.7 -23.4 -0.7 -4.7 -1 -67.2 -0.8 -195.4 l0.3 -188.6 2.6 -4.9 c1.5 -3 4.2 -6.2 6.8 -8 l4.3 -3 111.8 -0.5 111.8 -0.5 6.7 -7.2 c13.8 -15 34.2 -27.2 55 -33 9.4 -2.6 11.2 -2.8 29 -2.7 17.3 0 19.9 0.2 28.8 2.7 19.5 5.2 37.5 15.6 51.7 29.7 23 22.8 34.4 50.3 34.3 82.5 -0.2 29.8 -10.8 56.4 -31.3 77.9 -17.2 18.2 -41.4 31.2 -65.2 35.1 l-3.8 0.6 0 91.4 0 91.5 13.8 0 c15.6 0 19.1 1.2 21.8 7.5 1.7 4 1.9 18.6 0.4 26.6 -3.3 17.6 -17.7 31.3 -35.7 33.9 -8.1 1.1 -299 1.2 -307 0z m311.9 -16.3 c11.4 -5.6 17.8 -16.5 17.8 -30.2 l0 -7.5 -139.2 0.2 -139.3 0.3 -0.6 13 c-0.6 13.3 -1.9 18.6 -6.1 24.8 l-2 2.7 131.9 -0.2 131.8 -0.3 5.7 -2.8z m-295.3 -0.1 c5.3 -2.8 11.1 -8.6 13.9 -14 2.3 -4.5 2.6 -6.6 3.1 -18.6 0.6 -14.7 1.5 -17.2 6.8 -20.7 2.5 -1.7 10.2 -1.8 127.5 -2.1 l124.8 -0.2 0 -87.5 0 -87.5 -7.2 0 c-12.2 0 -29.3 -3.6 -40.7 -8.6 l-5.3 -2.4 -67.2 0 c-54.4 0 -67.6 -0.3 -69 -1.3 -2.9 -2.1 -3.4 -10.5 -0.8 -13.7 l2 -2.5 45.4 0 c24.9 -0.1 49.1 -0.2 53.7 -0.3 l8.4 -0.2 -6 -6.2 c-11.7 -12.3 -20.2 -26.2 -25.8 -42 l-2.8 -7.8 -36.3 0 c-35.1 0 -36.5 -0.1 -38.4 -2 -2.5 -2.5 -2.7 -9.5 -0.4 -12.8 l1.5 -2.2 35.2 0 35.2 0 -0.3 -10.5 -0.3 -10.4 -34.9 -0.3 c-25.3 -0.2 -35.2 -0.6 -36.1 -1.5 -0.6 -0.6 -1.4 -3.4 -1.6 -6 -0.4 -3.8 -0.1 -5.3 1.5 -7.3 l2 -2.5 35.2 -0.1 35.3 -0.1 2.2 -9.1 c1.3 -4.9 3.9 -12.7 5.9 -17.3 2 -4.5 3.6 -8.4 3.6 -8.6 0 -0.2 -45.4 -0.2 -101 -0.1 l-101 0.3 -3.2 3.3 -3.3 3.2 0 189.8 0 189.7 2.3 4.5 c3.6 7.3 7.8 11.6 14.5 15 5.4 2.8 6.9 3.1 12.2 2.7 3.4 -0.2 7.6 -1.2 9.4 -2.1z m290.2 -249.1 c46.4 -8.1 82.1 -46.8 86.4 -93.6 2.2 -25.1 -9.9 -56.3 -29.7 -76.2 -21.9 -22 -53.1 -33.9 -80.3 -30.6 -43.7 5.4 -79.1 36.8 -89.7 79.8 -3.2 12.7 -3 30.2 0.5 43.3 7.9 29.8 27.7 54.3 55.2 68 18.9 9.5 38.6 12.7 57.6 9.3z"/>
			<path d="M76.7 397.2 c-1.5 -1.7 -1.7 -5.7 -1.7 -37 0 -33.9 0.1 -35.3 2 -37.2 1.9 -1.9 3.3 -2 37.5 -2 34.2 0 35.6 0.1 37.5 2 1.9 1.9 2 3.3 2 37.4 0 30.9 -0.2 35.7 -1.6 37 -1.3 1.4 -6.2 1.6 -37.8 1.6 -33.9 0 -36.4 -0.1 -37.9 -1.8z m60.1 -36.9 l-0.3 -21.8 -22 0 -22 0 -0.3 21.8 -0.2 21.7 22.5 0 22.5 0 -0.2 -21.7z"/>
			<path d="M173 386 c-2.5 -2.5 -2.7 -9.5 -0.4 -12.8 l1.5 -2.2 56 0 c36.7 0 56.7 0.4 58 1 1.5 0.9 1.9 2.2 1.9 7 0 4 -0.5 6.4 -1.6 7.4 -1.4 1.4 -8 1.6 -57.5 1.6 -54.6 0 -55.9 0 -57.9 -2z"/>
			<path d="M173 348 c-2.5 -2.5 -2.7 -9.5 -0.4 -12.8 l1.5 -2.2 75.8 0 c62.3 0 76.1 0.2 77 1.3 1.5 1.9 2.5 7.2 1.7 10.1 -1.5 5.9 3.1 5.6 -78.7 5.6 -73.6 0 -74.9 0 -76.9 -2z"/>
			<path d="M76.7 285.2 c-1.5 -1.7 -1.7 -5.7 -1.7 -37 0 -33.9 0.1 -35.3 2 -37.2 1.9 -1.9 3.3 -2 37.3 -2 30.3 0 35.6 0.2 37.5 1.6 l2.2 1.5 0 35.9 c0 31.3 -0.2 36.1 -1.6 37.4 -1.3 1.4 -6.2 1.6 -37.8 1.6 -33.9 0 -36.4 -0.1 -37.9 -1.8z m60.1 -36.9 l-0.3 -21.8 -22 0 -22 0 -0.3 21.8 -0.2 21.7 22.5 0 22.5 0 -0.2 -21.7z"/>
			<path d="M173 274 c-2.5 -2.5 -2.7 -9.5 -0.4 -12.8 l1.5 -2.2 56 0 c36.7 0 56.7 0.4 58 1 1.5 0.9 1.9 2.2 1.9 7 0 4 -0.5 6.4 -1.6 7.4 -1.4 1.4 -8 1.6 -57.5 1.6 -54.6 0 -55.9 0 -57.9 -2z"/>
			<path d="M76.7 173.2 c-1.5 -1.7 -1.7 -5.7 -1.7 -37 0 -33.9 0.1 -35.3 2 -37.2 1.9 -1.9 3.3 -2 37.3 -2 30.3 0 35.6 0.2 37.5 1.6 l2.2 1.5 0 35.9 c0 31.3 -0.2 36.1 -1.6 37.4 -1.3 1.4 -6.2 1.6 -37.8 1.6 -33.9 0 -36.4 -0.1 -37.9 -1.8z m60.3 -37.2 l0 -22 -22.2 0.2 -22.3 0.3 -0.3 21.8 -0.2 21.7 22.5 0 22.5 0 0 -22z"/>
			<path d="M352.5 193.6 c-1.3 -0.9 -2.1 -3.1 -2.5 -6.7 l-0.5 -5.3 -4.5 -1.1 c-9.7 -2.5 -18.6 -8.8 -22.1 -15.7 -1.5 -3 -1.9 -5.5 -1.7 -10.6 l0.3 -6.7 10.7 -0.3 10.6 -0.3 2.9 4.1 c3.7 5.2 9.4 8 16.5 8 6.8 0 11.5 -1.5 15 -4.8 5.2 -4.8 1.3 -7.1 -19.4 -12.1 -23.1 -5.5 -30.1 -9.8 -33.2 -20.2 -1.8 -6 -2.1 -15.7 -0.6 -20.9 2.6 -9.5 11.1 -17.4 21.8 -20.1 4.1 -1.1 4.2 -1.2 4.2 -5.6 0 -7.9 0.6 -8.3 12.5 -8.3 11.9 0 12.5 0.4 12.5 8.3 l0 4.5 5.1 1.6 c13.1 4.3 21.9 14.5 21.9 25.4 0 6.1 -0.2 6.2 -12 6.2 l-10.8 0 -2.7 -3.6 c-5.2 -6.8 -14.2 -9.1 -22 -5.5 -7.3 3.3 -8.4 7.1 -2.9 10.3 1.7 1 9.5 3.4 17.5 5.3 30 7.4 34.9 11.7 34.9 31.1 0 11.7 -1.6 16 -7.8 21.6 -5 4.5 -8.6 6.4 -15.4 8.2 l-5.3 1.3 -0.5 5 c-0.8 7.6 -1.8 8.3 -11.9 8.3 -5.9 0 -9.3 -0.5 -10.6 -1.4z"/>
		</g>
		<g fill="#ef8759">
			<path d="M89.2 136.3 l0.3 -24.8 25.3 -0.3 25.2 -0.2 0 25 0 25 -25.5 0 -25.5 0 0.2 -24.7z m46.8 -6.8 l0 -14.5 -21.5 0 -21.5 0 0 14.5 0 14.5 21.5 0 21.5 0 0 -14.5z"/>
		</g>
		<g fill="#a1ca87">
			<path d="M89.2 360.3 l0.3 -24.8 25 0 25 0 0.3 8.8 c0.3 8.2 0.2 8.7 -1.8 8.7 -1.8 0 -2 -0.6 -2 -7 l0 -7 -21.5 0 -21.5 0 0 23 c0 22.4 -0.1 23 -2 23 -2 0 -2 -0.5 -1.8 -24.7z"/>
			<path d="M89.2 248.3 l0.3 -24.8 25 0 25 0 0.3 24.8 0.2 24.7 -25.5 0 -25.5 0 0.2 -24.7z m46.8 -16.8 l0 -4.5 -21.5 0 -21.5 0 0 4.5 0 4.5 21.5 0 21.5 0 0 -4.5z"/>
			<path d="M344.3 233.5 c-11.9 -2.1 -26.3 -7.4 -26.3 -9.5 0 -0.6 1.2 -1 2.7 -1 3.2 0 9.3 2.1 9.3 3.2 0 0.4 1 0.8 2.3 0.8 1.2 0 4.4 0.7 7.1 1.5 2.6 0.8 7.7 1.8 11.2 2.1 5.3 0.6 6.4 1 6.4 2.5 0 2.3 -2.2 2.3 -12.7 0.4z"/>
			<path d="M368 233.1 c0 -1.7 0.6 -2.1 3.3 -2.1 4.1 0 17.8 -3.3 24.8 -6 6.2 -2.3 11.3 -2.7 10.7 -0.7 -0.9 2.7 -20.3 8.8 -32.5 10.2 -6 0.7 -6.3 0.6 -6.3 -1.4z"/>
			<path d="M410 220.5 c0 -1.8 0.7 -2.6 2.5 -3.1 1.4 -0.3 2.5 -1 2.5 -1.5 0 -0.5 0.7 -0.9 1.5 -0.9 0.8 0 1.5 -0.4 1.5 -1 0 -0.5 0.7 -1 1.5 -1 0.8 0 1.5 -0.4 1.5 -1 0 -0.5 1.1 -1 2.4 -1 1.8 0 2.5 -0.6 2.8 -2.2 0.2 -1.9 1 -2.3 4.3 -2.6 l4 -0.2 -4 3.6 c-4.3 3.9 -18.2 13.4 -19.6 13.4 -0.5 0 -0.9 -1.1 -0.9 -2.5z"/>
			<path d="M308.8 220.2 c-3.7 -2.2 -3.5 -3.2 0.7 -3.2 3.1 0 3.5 0.3 3.5 2.5 0 2.9 -0.6 3 -4.2 0.7z"/>
			<path d="M297.8 212.5 c-3.2 -2.5 -5.8 -4.7 -5.8 -5 0 -0.3 1.6 -0.5 3.6 -0.5 2.7 0 3.7 0.5 4.1 2 0.3 1.1 1.4 2 2.4 2 1.4 0 1.9 0.7 1.9 3 0 1.7 -0.1 3 -0.2 3 -0.2 0 -2.9 -2 -6 -4.5z"/>
			<path d="M438 198.7 c0 -3.1 0.4 -4 2 -4.4 1.1 -0.3 2 -1.4 2 -2.4 0 -1.1 0.7 -2.2 1.5 -2.5 0.8 -0.4 1.5 -1.2 1.5 -2 0 -0.8 0.5 -1.4 1 -1.4 0.6 0 1 -0.7 1 -1.5 0 -0.8 0.7 -1.5 1.5 -1.5 0.8 0 1.5 -0.8 1.5 -1.9 0 -1 1.8 -5.6 3.9 -10.2 6.9 -14.6 8.6 -23 8.5 -40.9 0 -14.2 -0.3 -16.3 -2.9 -24.5 -1.5 -4.9 -3 -10.7 -3.3 -12.7 -0.2 -2.1 -1 -3.8 -1.6 -3.8 -1.5 0 -3.6 -4.2 -3.6 -7 0 -1.1 -0.7 -2 -1.5 -2 -0.8 0 -1.5 -0.7 -1.5 -1.5 0 -0.8 -0.4 -1.5 -1 -1.5 -0.5 0 -1 -0.7 -1 -1.5 0 -0.8 -0.4 -1.5 -1 -1.5 -0.5 0 -1 -0.6 -1 -1.4 0 -0.8 -0.7 -1.6 -1.5 -2 -0.8 -0.3 -1.5 -1.7 -1.5 -3.1 0 -1.7 -0.5 -2.5 -1.8 -2.5 -2.3 0 -11.2 -9 -11.2 -11.3 0 -1.1 -0.8 -1.7 -2.5 -1.7 -1.6 0 -2.5 -0.6 -2.5 -1.5 0 -0.8 -0.9 -1.5 -2 -1.5 -1.1 0 -2 -0.4 -2 -1 0 -0.5 -0.7 -1 -1.5 -1 -0.8 0 -1.5 -0.4 -1.5 -0.9 0 -0.5 -1.1 -1.2 -2.5 -1.5 -1.4 -0.4 -2.5 -1.3 -2.5 -2.1 0 -0.9 -1 -1.5 -2.5 -1.5 -1.6 0 -2.5 -0.6 -2.5 -1.5 0 -0.9 -0.9 -1.5 -2.4 -1.5 -1.4 0 -6.4 -1.3 -11.3 -2.9 -4.8 -1.7 -11.2 -3.3 -14 -3.7 -4.4 -0.5 -5.3 -1 -5.3 -2.6 0 -1.8 0.5 -1.9 5.3 -1.3 39.4 5.4 74.8 37.3 85.1 76.9 8.5 32.6 -0.1 70 -21.7 94.1 l-3.6 4 -0.1 -3.8z"/>
			<path d="M281.4 196.3 c-6.1 -7.7 -6 -7.3 -2.5 -7.3 2.4 0 3.1 0.4 3.1 1.9 0 1 0.9 2.1 2 2.4 1.5 0.4 2 1.4 2 4.1 0 2 -0.2 3.6 -0.4 3.6 -0.3 0 -2.2 -2.1 -4.2 -4.7z"/>
			<path d="M351.6 193.4 c-2 -2 -2.2 -8.4 -0.2 -8.4 0.8 0 1.7 1.2 2 2.6 0.4 1.6 1.8 3 3.6 3.7 1.7 0.6 3 1.7 3 2.4 0 1.9 -6.5 1.6 -8.4 -0.3z"/>
			<path d="M367 193.5 c0 -0.2 1.1 -1.5 2.5 -2.9 1.4 -1.4 2.5 -3.2 2.5 -4.1 0 -0.8 0.7 -1.5 1.5 -1.5 1 0 1.5 1 1.5 2.9 0 4.9 -0.9 6.1 -4.6 6.1 -1.9 0 -3.4 -0.2 -3.4 -0.5z"/>
			<path d="M272.2 183.1 c-2.7 -4.8 -2.7 -5.1 0.2 -5.1 2.6 0 3.6 1.6 3.6 6.1 0 4 -1.2 3.6 -3.8 -1z"/>
			<path d="M346.3 181.3 c-1.3 -0.2 -2.3 -0.9 -2.3 -1.4 0 -0.5 -1.1 -0.9 -2.5 -0.9 -2.8 0 -7.5 -2 -7.5 -3.2 0 -0.4 -0.7 -0.8 -1.5 -0.8 -1 0 -1.5 -1 -1.5 -2.9 l0 -3 5.7 3.5 c3.2 1.9 7.6 3.9 9.8 4.5 6.2 1.5 6.5 1.7 6.5 3.4 0 1.5 -1.9 1.7 -6.7 0.8z"/>
			<path d="M372 180.5 c0 -0.9 0.6 -1.7 1.3 -1.9 0.6 -0.2 3.6 -1 6.5 -1.9 l5.2 -1.5 0 2.3 c0 2 -0.7 2.5 -5 3.4 -6.8 1.5 -8 1.4 -8 -0.4z"/>
			<path d="M386 175 c0 -0.5 0.4 -1 0.9 -1 0.5 0 3.2 -2.1 6.1 -4.7 l5.1 -4.6 -0.3 3.9 c-0.2 3.2 -0.7 4 -2.5 4.2 -1.3 0.2 -2.3 1 -2.3 1.8 0 0.9 -1.1 1.4 -3.5 1.4 -1.9 0 -3.5 -0.4 -3.5 -1z"/>
			<path d="M267.5 174.1 c-1.2 -2 -5.5 -14.2 -5.5 -15.6 0 -0.8 0.8 -1.5 1.8 -1.5 1.8 0 4.2 5.3 4.2 9.4 0 0.9 0.5 1.6 1 1.6 0.6 0 1 1.6 1 3.5 0 3.3 -1.2 4.6 -2.5 2.6z"/>
			<path d="M322 161.5 c0 -1.9 -0.4 -3.5 -1 -3.5 -0.5 0 -1 -2 -1 -4.4 0 -6.7 1.5 -7.6 12.1 -7.6 8.2 0 8.9 0.1 8.9 2 0 1.5 0.7 2 2.5 2 1.8 0 2.5 0.5 2.5 2 0 1.1 0.7 2 1.5 2 0.8 0 1.5 0.4 1.5 0.8 0 0.4 2.3 1.6 5.1 2.6 4 1.5 6.6 1.7 12.2 1.2 4 -0.4 7.4 -1.1 7.5 -1.6 0.2 -0.6 1.5 -1 2.8 -1 1.9 0 2.4 -0.5 2.4 -2.5 0 -1.8 0.5 -2.5 2 -2.5 2.9 0 2.5 3.1 -0.7 6.2 -3.9 3.6 -9.5 5.1 -18.5 5.1 -9.4 0 -15 -2.5 -19.1 -8.3 l-2.9 -4.1 -7.6 0.3 -7.7 0.3 -0.3 3.7 c-0.2 2 0.4 5 1.2 6.7 2.1 3.9 2 4.1 -0.9 4.1 -2.2 0 -2.5 -0.4 -2.5 -3.5z"/>
			<path d="M400 159.4 c1.5 -3.8 1.2 -15 -0.5 -19 -0.8 -2 -3.4 -5.4 -5.7 -7.5 l-4.3 -3.9 3.8 0 c3 0 3.7 0.4 3.7 2 0 1.3 0.7 2 2 2 1.6 0 2 0.7 2 3 0 1.9 0.5 3 1.4 3 1.8 0 3.1 10.7 2.1 17.9 -0.6 4.5 -1 5.1 -3.1 5.1 -2.1 0 -2.3 -0.3 -1.4 -2.6z"/>
			<path d="M260.1 151 c-1.4 -6.7 -1.4 -7 0.8 -7 1.8 0 3.1 3.9 3.1 9.8 0 4.4 -2.8 2.3 -3.9 -2.8z"/>
			<path d="M377.3 148.7 c-0.8 -1.3 -11.1 -4.6 -21.5 -6.8 -3.2 -0.7 -5.8 -1.6 -5.8 -2.1 0 -0.4 -1.2 -0.8 -2.7 -0.8 -5.2 0 -7.3 -1.1 -7.3 -3.6 0 -2.3 0 -2.3 4.3 -0.8 2.3 0.8 9.7 2.9 16.5 4.5 6.7 1.6 14.1 3.7 16.3 4.5 3.4 1.4 5.9 3.9 5.9 5.8 0 1.2 -4.9 0.5 -5.7 -0.7z"/>
			<path d="M258.6 140.8 c-1.1 -4.2 -0.7 -5.8 1.4 -5.8 1.7 0 2 0.7 2 4 0 4.5 -2.3 5.7 -3.4 1.8z"/>
			<path d="M331 131 c0 -1.3 -0.7 -2 -2 -2 -1.6 0 -2 -0.7 -2 -3 0 -1.9 -0.5 -3 -1.4 -3 -0.7 0 -1.6 -1.4 -2 -3.1 -1.9 -9.5 1.2 -11 3.7 -1.9 1.4 4.8 2.7 7 6.4 10.5 l4.7 4.5 -3.7 0 c-3 0 -3.7 -0.4 -3.7 -2z"/>
			<path d="M384 127.5 c-1.9 -0.8 -10 -3 -17.9 -5 -16.5 -4 -20.2 -5.8 -21.4 -10.2 -1.3 -4.5 0.9 -8.3 6.3 -11 5.6 -2.9 8 -2.9 8 -0.3 0 1.6 -0.7 2 -3.5 2 -2.4 0 -3.5 0.5 -3.5 1.5 0 0.8 -0.6 1.5 -1.4 1.5 -4 0 -1.3 8.9 2.7 9 0.9 0 1.7 0.5 1.7 1 0 0.6 1 1 2.2 1 3.5 0 24.3 5.2 24.6 6.1 0.2 0.5 1.7 0.9 3.3 0.9 2.4 0 2.9 0.4 2.9 2.5 0 1.4 -0.1 2.5 -0.2 2.4 -0.2 0 -1.9 -0.6 -3.8 -1.4z"/>
			<path d="M258.5 120.8 c1.5 -13.8 6 -28.6 12.2 -40 3 -5.5 4.3 -6.1 4.3 -1.8 0 3.1 -3.8 12 -5.2 12 -0.4 0 -0.8 1.1 -0.8 2.4 0 1.3 -0.3 2.6 -0.8 2.8 -1.2 0.5 -5.2 17.2 -5.9 24.4 -0.5 5.5 -0.9 6.4 -2.5 6.4 -1.8 0 -1.9 -0.5 -1.3 -6.2z"/>
			<path d="M381 111.8 c0 -2.2 0.3 -2.3 8.4 -2 9.6 0.4 10.4 -0.3 8.4 -6.9 -2.3 -7.7 -10.6 -15.2 -20.7 -18.5 -5.7 -1.8 -6.9 -4.4 -2.1 -4.4 1.7 0 3 0.5 3 1 0 0.6 1.4 1 3 1 1.7 0 3 0.5 3 1 0 0.6 0.9 1 2 1 1.5 0 2 0.7 2 2.5 0 2.2 0.4 2.5 3.5 2.5 3.1 0 3.5 0.3 3.5 2.5 0 1.8 0.5 2.5 2 2.5 1.3 0 2 0.7 2 1.9 0 1.1 0.5 2.1 1.2 2.3 0.7 0.3 1.4 3.2 1.6 7.1 0.4 5.7 0.2 6.7 -1.2 6.7 -0.9 0 -1.6 0.5 -1.6 1 0 0.6 -3.7 1 -9 1 -8.7 0 -9 -0.1 -9 -2.2z"/>
			<path d="M323 105.5 c0 -3.9 2.7 -11.5 4.1 -11.5 0.5 0 0.9 -0.7 0.9 -1.5 0 -0.9 0.9 -1.5 2.5 -1.5 2 0 2.5 -0.5 2.5 -2.5 0 -1.6 0.6 -2.5 1.5 -2.5 0.8 0 1.5 -0.4 1.5 -0.8 0 -1.2 4.7 -3.2 7.5 -3.2 1.4 0 2.5 -0.4 2.5 -1 0 -0.5 1.6 -1 3.5 -1 5 0 4.5 2.5 -0.7 3.9 -11 2.8 -19.4 10.8 -22 20.9 -1.3 5.2 -3.8 5.7 -3.8 0.7z"/>
			<path d="M372 104.5 c0 -1 -1.1 -1.5 -3.5 -1.5 -2.8 0 -3.5 -0.4 -3.5 -2 0 -1.2 0.7 -2 1.8 -2 2.5 0.1 9.5 3.4 11.1 5.3 1.2 1.5 1 1.7 -2.3 1.7 -2.5 0 -3.6 -0.4 -3.6 -1.5z"/>
			<path d="M350 72.5 c0 -3.3 0.2 -3.5 3.5 -3.5 l3.5 0 -2 2 c-1.1 1.1 -2 2.7 -2 3.5 0 0.8 -0.7 1.5 -1.5 1.5 -1 0 -1.5 -1.1 -1.5 -3.5z"/>
			<path d="M372 74.5 c0 -0.8 -0.9 -2.4 -2 -3.5 l-2 -2 3.5 0 c3.3 0 3.5 0.2 3.5 3.5 0 2.4 -0.5 3.5 -1.5 3.5 -0.8 0 -1.5 -0.7 -1.5 -1.5z"/>
			<path d="M278.8 68.3 c1.1 -1.6 3.6 -4.6 5.6 -6.8 l3.6 -4 -0.2 4 c-0.3 3.3 -0.7 4.1 -2.5 4.3 -1.7 0.3 -2.3 1 -2.3 2.8 0 2 -0.5 2.4 -3.1 2.4 l-3 0 1.9 -2.7z"/>
			<path d="M293.5 52.4 c4.5 -3.9 14.6 -11.1 17 -12 1.1 -0.5 1.5 0.1 1.5 2 0 2.2 -0.4 2.6 -3 2.6 -2.3 0 -3 0.4 -3 2 0 1.1 -0.7 2 -1.5 2 -0.8 0 -1.5 0.5 -1.5 1 0 0.6 -1.3 1 -3 1 -2.5 0 -3 0.4 -3 2.5 0 2.2 -0.4 2.5 -3.7 2.5 l-3.8 -0.1 4 -3.5z"/>
			<path d="M314 39.1 c0 -2.3 21.3 -9.9 32.3 -11.5 4.2 -0.7 4.7 -0.5 4.7 1.2 0 1.5 -0.9 2.1 -4.3 2.5 -2.4 0.3 -7.9 1.8 -12.3 3.1 -4.3 1.4 -9.1 2.6 -10.6 2.6 -1.8 0 -2.8 0.5 -2.8 1.5 0 1 -1.1 1.5 -3.5 1.5 -1.9 0 -3.5 -0.4 -3.5 -0.9z"/>
			<path d="M353 28.6 c0 -1.7 3.1 -2.6 9.5 -2.6 6.4 0 9.5 0.9 9.5 2.6 0 1.1 -2.1 1.4 -9.5 1.4 -7.4 0 -9.5 -0.3 -9.5 -1.4z"/>
		</g>
		<g fill="#fe9967">
			<path d="M90 135.5 l0 -11.5 24.5 0 24.5 0 0 11.5 0 11.5 -24.5 0 -24.5 0 0 -11.5z"/>
		</g>
		<g fill="#efd96a">
			<path d="M90 376.5 l0 -8.5 23 0 23 0 0 -10.5 c0 -8.3 0.3 -10.5 1.4 -10.5 2.2 0 2.6 3.3 2.6 21.3 l0 16.7 -25 0 -25 0 0 -8.5z"/>
			<path d="M346.4 233.5 c-37.3 -5.8 -69.2 -32.1 -81.9 -67.5 -9.8 -27.5 -8.1 -54.8 5 -81.5 10.5 -21.5 27 -37.8 48.6 -47.9 9.1 -4.3 22.8 -8.3 31.4 -9.2 5.9 -0.6 6.5 -0.5 6.5 1.2 0 1.3 -1.4 2.5 -4.8 3.8 -11.5 4.5 -23.5 12.8 -34.3 23.5 -18 18.1 -27.2 35.5 -31.4 59.9 -1.9 10.8 -1.9 19.5 0 30.5 4.7 26.7 18.7 50.3 39.8 67.2 9.7 7.7 28.2 17.5 33.2 17.5 2.8 0 3.5 0.4 3.5 2 0 2.4 -3 2.5 -15.6 0.5z"/>
			<path d="M363 233 c0 -1.8 0.7 -2 5.5 -2 4 0 5.5 0.4 5.5 1.4 0 1.6 -3 2.6 -7.7 2.6 -2.6 0 -3.3 -0.4 -3.3 -2z"/>
			<path d="M375 232 c0 -1.6 0.7 -2 3.5 -2 4 0 4.9 2.4 1.3 3.4 -3.8 1 -4.8 0.7 -4.8 -1.4z"/>
			<path d="M402 224.7 c0 -1.7 1 -2.8 3.5 -4 3.7 -1.8 9.5 -2.3 9.5 -0.9 0 0.9 -6 4.5 -10.3 6.1 -2.4 1 -2.7 0.8 -2.7 -1.2z"/>
			<path d="M422 213.1 c0 -2.8 0.3 -3.1 3 -3.1 2.5 0 3 -0.4 3 -2.5 0 -2.2 0.4 -2.5 3.8 -2.5 l3.7 0.1 -4 3.5 c-2.2 1.9 -5.2 4.4 -6.7 5.5 l-2.8 2 0 -3z"/>
			<path d="M437 199.6 c0 -3.3 0.2 -3.6 3.1 -3.6 l3 0 -2.1 3 c-3.1 4.4 -4 4.5 -4 0.6z"/>
			<path d="M351.3 193.5 c-1.8 -2 -1.7 -7.5 0.1 -7.5 0.8 0 1.7 1.1 2 2.5 0.4 1.5 1.6 2.7 3.1 3.1 1.4 0.3 2.5 1.2 2.5 2 0 1.9 -6.1 1.8 -7.7 -0.1z"/>
			<path d="M366 193.6 c0 -0.8 1.1 -1.7 2.5 -2 1.5 -0.4 2.7 -1.6 3.1 -3.1 0.3 -1.4 1.2 -2.5 2 -2.5 1.9 0 1.8 5.7 0 7.6 -1.9 1.8 -7.6 1.9 -7.6 0z"/>
			<path d="M448 184.5 c0 -3.1 0.3 -3.5 2.5 -3.5 3 0 3 0.3 0.8 4.1 -2.3 3.8 -3.3 3.7 -3.3 -0.6z"/>
			<path d="M340.8 179.8 c-3.2 -1.1 -5.8 -2.4 -5.8 -2.9 0 -0.5 -0.7 -0.9 -1.5 -0.9 -0.8 0 -1.5 -0.4 -1.5 -1 0 -0.5 -0.6 -1 -1.4 -1 -1.9 0 -7.6 -6.7 -7.6 -9 0 -1 -0.5 -2 -1.2 -2.2 -0.7 -0.3 -1.4 -3.2 -1.6 -7.1 -0.5 -7.6 0.7 -9.7 5.7 -9.7 3.7 0 4.2 2.5 0.7 3.4 -3.2 0.8 -3.8 2.9 -2.5 8.2 2.2 8.5 11.5 16.6 23.2 19.9 3.5 1 5.7 2.2 5.7 3.1 0 2 -5.2 1.7 -12.2 -0.8z"/>
			<path d="M372 180.7 c0 -1.6 2 -2.7 4.8 -2.7 3 0 13.7 -5.6 17 -9 5.5 -5.5 7.6 -10.6 7.5 -18.5 0 -15.5 -7.1 -21.4 -32.9 -27.5 -20.6 -4.9 -23.4 -6.5 -23.4 -13.2 0 -6.6 6.6 -10.8 17 -10.8 7.5 0 11.7 1.8 17.1 7.1 2.7 2.7 5.6 4.9 6.4 4.9 0.8 0 1.5 0.7 1.5 1.5 0 1 -1.1 1.5 -3.5 1.5 -3.5 0 -5 -1 -9 -6 -3.8 -4.8 -12.1 -6.4 -19.6 -3.8 -4.1 1.4 -5.8 3.4 -5.9 6.8 0 2.3 0.7 2.7 7.8 4.7 4.2 1.3 12.3 3.4 18 4.7 5.7 1.4 12.7 3.6 15.7 5 4.9 2.2 5.5 2.8 5.5 5.5 0 2.7 0.3 3.1 2.9 3.1 4.2 0 5.6 4.1 5.6 17 0 9.1 -0.3 11.1 -2.3 14.9 -1.3 2.4 -3.2 4.5 -4.2 4.8 -1 0.3 -2 1.3 -2.3 2.4 -0.3 1 -1.2 1.9 -2.1 1.9 -0.9 0 -1.6 0.4 -1.6 0.9 0 1.4 -9.7 5.2 -15.1 5.8 -4 0.5 -4.9 0.3 -4.9 -1z"/>
			<path d="M457 165.6 c0 -3.2 0.3 -3.6 2.5 -3.6 2.4 0 2.5 0.1 1.2 3.2 -1.9 4.6 -3.7 4.8 -3.7 0.4z"/>
			<path d="M350.4 160.1 c-2.2 -1 -5.5 -3.7 -7.3 -6 -1.8 -2.2 -4.4 -4.4 -5.7 -4.7 -3.5 -0.9 -3.1 -3.4 0.7 -3.4 3.8 0 6.9 1.6 6.9 3.5 0 0.8 0.5 1.5 1 1.5 0.6 0 1 0.9 1 2 0 1.3 0.7 2 2 2 1.1 0 2 0.4 2 0.9 0 0.5 1.8 1.2 4 1.6 3 0.5 4 1.1 4 2.6 0 2.5 -3.1 2.5 -8.6 0z"/>
			<path d="M367 160.2 c0 -1.6 0.9 -2.2 4 -2.7 2.2 -0.4 4 -1.1 4 -1.6 0 -0.5 0.6 -0.9 1.4 -0.9 1.2 0 3.4 -5.7 2.4 -6.4 -0.7 -0.5 -15.9 -4.7 -27 -7.5 -11.7 -3 -19.8 -6.3 -19.8 -8.1 0 -0.6 -0.7 -1 -1.5 -1 -0.8 0 -1.5 -0.9 -1.5 -2 0 -1.1 -0.6 -2 -1.4 -2 -1.8 0 -4.6 -7 -4.6 -11.5 0 -5.1 2.5 -4.5 3.8 0.8 2.7 10.4 10 15.9 26.9 20.2 25.8 6.5 29.3 8.1 29.3 13.5 0 5.1 -4.7 9.1 -12.3 10.5 -3.3 0.6 -3.7 0.5 -3.7 -1.3z"/>
			<path d="M460 155.5 c0 -2.8 0.4 -3.5 2 -3.5 2.1 0 2.4 1 1.4 4.8 -1 3.6 -3.4 2.7 -3.4 -1.3z"/>
			<path d="M463 130.5 c0 -4.1 0.4 -5.5 1.4 -5.5 1.8 0 2.9 4.8 2 8.4 -0.3 1.4 -1.2 2.6 -2 2.6 -1 0 -1.4 -1.5 -1.4 -5.5z"/>
			<path d="M462 116.5 c0 -4 2.4 -4.9 3.4 -1.2 1 3.7 0.7 4.7 -1.4 4.7 -1.6 0 -2 -0.7 -2 -3.5z"/>
			<path d="M393 112.7 c0 -0.7 1.4 -1.8 3 -2.4 3.6 -1.3 3.9 -3.9 1.1 -9.8 -3.4 -7.3 -11.7 -13.9 -20.8 -16.6 -5 -1.4 -5.8 -3.9 -1.3 -3.9 4.9 0 13.5 3.8 18.4 8.2 2.5 2.3 4.6 4.8 4.6 5.5 0 0.7 0.4 1.3 0.9 1.3 1.2 0 3.1 5.6 3.1 9.1 0 1.6 -0.4 2.9 -1 2.9 -0.5 0 -1 1.6 -1 3.5 0 3.3 -0.2 3.5 -3.5 3.5 -2.2 0 -3.5 -0.5 -3.5 -1.3z"/>
			<path d="M323 103.8 c0 -1.8 0.9 -5.2 2 -7.5 1.6 -3.7 2.3 -4.3 4.9 -4.3 l3.1 0 -3 4.6 c-1.6 2.5 -3.2 5.9 -3.5 7.5 -0.9 4.1 -3.5 3.8 -3.5 -0.3z"/>
			<path d="M455 90.4 c0 -4.4 1.8 -4.2 3.7 0.4 1.3 3.1 1.2 3.2 -1.2 3.2 -2.2 0 -2.5 -0.4 -2.5 -3.6z"/>
			<path d="M334 88 c0 -2 0.5 -3 1.5 -3 0.8 0 1.5 -0.4 1.5 -1 0 -0.9 11.9 -5 14.6 -5 0.8 0 1.4 0.8 1.4 1.8 0 1.3 -1.3 2.2 -4.9 3.1 -2.7 0.7 -7 2.5 -9.5 4.1 l-4.6 3 0 -3z"/>
			<path d="M449 78.5 c0 -4.3 1 -4.4 3.3 -0.6 2.2 3.8 2.2 4.1 -0.8 4.1 -2.2 0 -2.5 -0.4 -2.5 -3.5z"/>
			<path d="M350 71.5 c0 -4.6 2 -5.5 12.5 -5.5 10.5 0 12.5 0.9 12.5 5.5 0 4 -2 4.7 -3.5 1.3 -0.9 -2.1 -1.7 -2.3 -9 -2.3 -7.3 0 -8.1 0.2 -9 2.3 -1.5 3.4 -3.5 2.7 -3.5 -1.3z"/>
			<path d="M440 65.4 c0 -3.9 0.9 -3.8 4 0.6 l2.1 3 -3 0 c-2.9 0 -3.1 -0.3 -3.1 -3.6z"/>
			<path d="M424 49.9 l0 -3 3 2.1 c4.4 3.1 4.5 4 0.6 4 -3.3 0 -3.6 -0.2 -3.6 -3.1z"/>
			<path d="M401 36.5 c0 -2.4 0.1 -2.5 3.2 -1.2 4.6 1.9 4.8 3.7 0.4 3.7 -3.2 0 -3.6 -0.3 -3.6 -2.5z"/>
			<path d="M385.3 33.3 c-1.5 -0.3 -2.3 -1.2 -2.3 -2.4 0 -2.2 0.6 -2.3 6.6 -0.8 8.2 2.1 4.4 4.9 -4.3 3.2z"/>
			<path d="M372 29 c0 -2.1 1 -2.4 4.8 -1.4 3.6 1 2.7 3.4 -1.3 3.4 -2.8 0 -3.5 -0.4 -3.5 -2z"/>
			<path d="M359 28.6 c0 -1.6 2.5 -2.4 5.3 -1.8 3.2 0.8 1.9 3.2 -1.8 3.2 -2.4 0 -3.5 -0.5 -3.5 -1.4z"/>
		</g>
		<g fill="#ffac88">
			<path d="M90 119.5 l0 -7.5 24.5 0 24.5 0 0 7.5 0 7.5 -24.5 0 -24.5 0 0 -7.5z"/>
		</g>
		<g fill="#badda4">
			<path d="M90 231.5 l0 -7.5 24.5 0 24.5 0 0 7.5 0 7.5 -24.5 0 -24.5 0 0 -7.5z"/>
		</g>
		<g fill="#feeb75">
			<path d="M90 359.5 l0 -11.5 24.5 0 24.5 0 0 11.5 0 11.5 -24.5 0 -24.5 0 0 -11.5z"/>
			<path d="M354.8 234 c-6.7 -1.2 -23.3 -10.2 -32.7 -17.7 -25.9 -20.7 -41.1 -52.2 -41.1 -85.4 0 -21.7 6.4 -42.8 18.7 -61.8 6 -9.1 23.6 -26 33.3 -31.8 14.2 -8.5 19.5 -10.3 30.2 -10.3 18.2 0 26 2.5 39.9 13 8.1 6.1 19.3 17.7 24.9 26 6.3 9.2 12.8 23.6 15.7 34.7 3.4 13.2 4.3 36.3 1.9 50.3 -3.4 19.7 -11 36.6 -23.3 51.9 -11.7 14.7 -30.3 28.1 -41.3 30 -8.6 1.5 -21 2 -26.2 1.1z m16 -43.2 c0.7 -0.7 1.2 -3.5 1.2 -6.4 l0 -5.2 3.8 -0.7 c9.5 -1.7 19.7 -8.6 23.4 -15.8 2.5 -5.1 3.4 -13.9 1.8 -19.5 -1.5 -5.8 -7.7 -12.4 -14.2 -15.2 -2.9 -1.2 -9.7 -3.3 -15.2 -4.6 -22.8 -5.4 -26.6 -7.3 -26.6 -13.7 0 -6.5 10.6 -11.6 20.9 -10.1 6.1 0.9 8.9 2.4 13.3 7.3 3.6 4.1 3.7 4.1 10.6 4.1 8.3 0 9.8 -1.1 8.9 -6.7 -1.4 -8.1 -10.6 -17.1 -20.8 -20.1 l-5.9 -1.7 0 -5.7 c0 -6.9 -1.1 -7.8 -9.7 -7.8 -7.7 0 -9.1 1.2 -9.5 7.9 l-0.3 5.3 -6.1 1.9 c-7.4 2.3 -15.7 9.2 -18.5 15.4 -2.5 5.4 -2.5 16.6 0 22 4.1 9.1 10.5 12.6 31.7 17.9 17.3 4.3 21.1 5.8 22.6 9.1 1.7 3.7 -0.9 8.7 -5.8 11 -5 2.3 -15.8 3.1 -22.3 1.5 -4.9 -1.2 -7.8 -3.2 -12.8 -9.3 -1.9 -2.5 -2.8 -2.7 -9 -2.7 -4 0 -7.4 0.5 -8.1 1.2 -1.9 1.9 -1.4 6.1 1.6 11.9 3.5 7 10.4 12.2 19.9 15.2 l7.3 2.2 0 5.1 c0 2.7 0.5 5.5 1.2 6.2 0.7 0.7 4.1 1.2 8.3 1.2 4.2 0 7.6 -0.5 8.3 -1.2z"/>
		</g>
		<g fill="#d3d3d3">
			<path d="M68.9 484.6 c-9.7 -2.6 -17.1 -8.8 -21.7 -18.6 -1.6 -3.2 -1.7 -18.4 -1.7 -196.2 l0 -192.8 3.3 -3.2 3.2 -3.3 105.5 -0.3 c92.1 -0.2 105.5 -0.1 105.5 1.2 0 0.8 -0.4 1.7 -0.9 2 -1.8 1.1 -9.3 19.9 -11.6 28.9 l-2.3 9.2 -4.3 0.3 c-6.1 0.5 -10.9 -0.6 -10.9 -2.3 0 -1.2 1.4 -1.5 6 -1.5 5.7 0 6 -0.1 6.6 -2.7 1.4 -6.5 4.8 -17.3 7.5 -23.7 1.6 -3.7 2.9 -7 2.9 -7.2 0 -0.2 -39.8 -0.4 -88.6 -0.4 l-88.5 0 -1.5 3.5 c-0.8 2.1 -1.4 6.8 -1.4 11.8 l0 8.5 4.5 -0.6 c5.4 -0.6 6.4 1.7 1.5 3.5 -1.8 0.7 -3.2 2.1 -3.6 3.7 -0.3 1.4 -1 2.6 -1.5 2.6 -0.5 0 -0.9 12.9 -0.9 29.5 0 19 0.4 29.5 1 29.5 0.6 0 1 0.6 1 1.3 0 0.8 0.8 2.1 1.8 3 1.7 1.5 5.6 1.7 35 1.7 28.8 0 33.3 -0.2 34.6 -1.6 1.4 -1.4 1.6 -5.6 1.4 -34.7 l-0.3 -33.2 -3.2 -1.5 c-4.5 -2.1 -4.2 -4 0.6 -4 6.7 0 6.6 -0.8 6.6 39.1 l0 35.7 -2.4 2.1 c-2.3 2 -3.4 2.1 -37.3 2.1 -22.2 0 -35.6 -0.4 -36.9 -1 -1.8 -1 -1.9 -0.6 -1.9 16.8 l0 18 4.5 -0.6 c3.6 -0.4 4.5 -0.2 4.5 1.1 0 0.8 -1.2 1.8 -2.6 2.1 -1.6 0.4 -3 1.8 -3.7 3.6 -0.6 1.7 -1.5 3 -1.9 3 -0.4 0 -0.8 13.3 -0.8 29.5 0 19 0.4 29.5 1 29.5 0.6 0 1 0.6 1 1.3 0 0.8 0.8 2.1 1.8 3 1.7 1.5 5.6 1.7 35 1.7 28.8 0 33.3 -0.2 34.6 -1.6 1.4 -1.4 1.6 -5.6 1.4 -34.7 l-0.3 -33.2 -3.2 -1.5 c-4.5 -2.1 -4.2 -4 0.6 -4 6.7 0 6.6 -0.8 6.6 38.9 0 34 -0.1 35.7 -2 37.9 l-1.9 2.2 -35.4 0 c-22.4 0 -36 -0.4 -37.3 -1 -1.8 -1 -1.9 -0.6 -1.9 16.8 l0 18 4.5 -0.6 c3.6 -0.4 4.5 -0.2 4.5 1.1 0 0.8 -1.2 1.8 -2.6 2.1 -1.6 0.4 -3 1.8 -3.7 3.6 -0.6 1.7 -1.5 3 -1.9 3 -0.4 0 -0.8 13.3 -0.8 29.5 0 19 0.4 29.5 1 29.5 0.6 0 1 0.6 1 1.3 0 0.8 0.8 2.1 1.8 3 1.7 1.5 5.6 1.7 35 1.7 28.7 0 33.3 -0.2 34.6 -1.6 1.4 -1.3 1.6 -5.8 1.6 -34 0 -31.1 -0.1 -32.5 -2 -34.4 -1.1 -1.1 -2.7 -2 -3.5 -2 -0.8 0 -1.5 -0.7 -1.5 -1.5 0 -2 5.9 -2 8.6 -0.1 1.8 1.4 1.9 3 1.9 37.3 0 34.2 -0.1 35.9 -2 38.1 l-1.9 2.2 -36.1 0 c-27.5 0 -36.4 -0.3 -37.4 -1.2 -1 -1.1 -1.1 5.1 -0.9 30.7 0.3 30.3 0.4 32.2 2.5 36.6 2.2 4.8 7.8 11.9 9.4 11.9 0.5 0 3 -1.9 5.6 -4.2 4.7 -4.4 9.3 -12.5 9.3 -16.5 0 -1.7 0.6 -2.3 2.1 -2.3 2 0 2.1 0.4 1.6 4.5 -1.7 12.2 -12.5 23.5 -23.8 25 -2.4 0.3 -5.5 0.8 -6.9 0.9 -1.4 0.2 -4.6 -0.2 -7.1 -0.8z"/>
			<path d="M106 485.5 c0 -0.2 1.7 -2.7 3.8 -5.5 5.9 -7.8 7.6 -13.6 8.2 -28 l0.5 -12.5 16.4 -0.3 16.4 -0.3 -0.6 13.3 c-0.5 14.1 -1.7 19 -6.2 25.5 l-2.5 3.8 116.2 0.3 c115.3 0.2 116.3 0.2 122 -1.8 9.5 -3.4 18.8 -15.1 18.8 -23.4 0 -1.9 0.5 -2.6 2 -2.6 2.7 0 2.7 4.2 0 11.4 -2.7 7.2 -8.8 13.9 -15.8 17.3 l-5.7 2.8 -136.7 0.3 c-75.3 0.1 -136.8 0 -136.8 -0.3z"/>
			<path d="M399 441 c0 -1.3 0.7 -2 2 -2 1.3 0 2 0.7 2 2 0 1.3 -0.7 2 -2 2 -1.3 0 -2 -0.7 -2 -2z"/>
			<path d="M104 437.5 c0 -7.7 5.9 -13.5 13.8 -13.5 5.7 0 5.6 2.4 -0.2 3.9 -5 1.2 -9 5.3 -10.1 10.1 -0.9 4.3 -3.5 3.9 -3.5 -0.5z"/>
			<path d="M175 388.3 c-2.8 -1 -4 -3.7 -4 -9 0 -4 0.5 -5.8 2 -7.3 2 -2 3.3 -2 56.9 -2 30.2 0 55.6 0.3 56.5 0.6 0.9 0.3 1.6 1.2 1.6 2 0 0.8 0.7 1.4 1.5 1.4 1.1 0 1.5 1.3 1.5 5.3 0 7.9 -1.8 9.1 -14.7 9.5 -9.9 0.4 -10.3 0.3 -10.3 -1.7 0 -2 0.5 -2.1 8.9 -2.1 6.8 0 9.3 -0.4 10.5 -1.6 2.3 -2.2 2 -7.1 -0.3 -8.4 -1.3 -0.6 -20.3 -1 -55 -1 l-53 0 -1.5 2.2 c-2.1 3 -2 4.4 0.4 6.8 1.9 1.9 3.3 2 32.5 2 29.8 0 30.5 0 30.5 2 0 2 -0.6 2 -31.2 1.9 -17.2 0 -32 -0.3 -32.8 -0.6z"/>
			<path d="M174 348.5 c0 -0.8 -0.7 -1.5 -1.5 -1.5 -1.2 0 -1.5 -1.3 -1.5 -5.9 0 -9.9 -6.7 -9.1 79.2 -9.1 73.5 0 74.8 0 76.8 2 1.5 1.5 2 3.3 2 7.3 0 6.1 -2.1 8.7 -7 8.7 -3.6 0 -4.1 -2.5 -0.7 -3.4 3.2 -0.8 4.9 -4.6 3.3 -7.7 l-1.2 -2.4 -73.2 -0.3 -73.1 -0.2 -1.7 2.5 c-2.1 3.3 -0.6 7.1 3.1 8.1 3.9 1 3.2 3.4 -1 3.4 -2.4 0 -3.5 -0.5 -3.5 -1.5z"/>
			<path d="M175.5 276.3 c-3.2 -0.8 -4.5 -3.3 -4.5 -9 0 -4 0.5 -5.8 2 -7.3 2 -2 3.3 -2 57.1 -2 55 0 58 0.2 60.1 3.4 0.4 0.6 0.8 3.4 0.8 6.1 0 7.7 -1.9 8.9 -14.7 9.3 -9.9 0.4 -10.3 0.3 -10.3 -1.7 0 -2 0.5 -2.1 8.9 -2.1 6.8 0 9.3 -0.4 10.5 -1.6 2.3 -2.2 2 -7.1 -0.3 -8.4 -1.3 -0.6 -20.3 -1 -55 -1 l-53 0 -1.5 2.2 c-2.1 3 -2 4.4 0.4 6.8 1.9 1.9 3.3 2 32.5 2 29.8 0 30.5 0 30.5 2 0 2 -0.6 2 -30.7 1.9 -17 -0.1 -31.7 -0.3 -32.8 -0.6z"/>
			<path d="M353 248 c0 -1.8 0.7 -2 6.5 -2 5.8 0 6.5 0.2 6.5 2 0 1.8 -0.7 2 -6.5 2 -5.8 0 -6.5 -0.2 -6.5 -2z"/>
			<path d="M335 247 c-4.7 -1 -11.6 -3 -15.5 -4.5 -3.8 -1.4 -7.8 -2.9 -8.7 -3.2 -2.4 -0.7 -2.3 -4.3 0.1 -4.3 1 0 4.3 1.1 7.2 2.4 5.8 2.5 17.9 6 24.4 7 8 1.3 9.5 1.8 9.5 3.2 0 1.9 -6.3 1.7 -17 -0.6z"/>
			<path d="M174 236.5 c0 -0.8 -0.7 -1.5 -1.5 -1.5 -1.2 0 -1.5 -1.3 -1.5 -5.8 0 -7.2 1.7 -9.2 7.8 -9.2 5.1 0 5.9 2.5 1.2 3.5 -6.3 1.4 -7.4 9.6 -1.5 11.1 3.9 1 3.2 3.4 -1 3.4 -2.4 0 -3.5 -0.5 -3.5 -1.5z"/>
			<path d="M234.8 223.3 c-1 -0.2 -1.8 -1.1 -1.8 -1.9 0 -1.2 3.3 -1.4 19.5 -1.4 15.9 0 19.5 0.3 19.5 1.4 0 0.7 -1 1.6 -2.2 2 -2.6 0.7 -32.4 0.6 -35 -0.1z"/>
			<path d="M286 222 c0 -0.5 -0.8 -1 -1.8 -1 -1.6 0 -12.2 -9.7 -12.2 -11.1 0 -0.4 -1.6 -2.3 -3.5 -4.3 -1.9 -2.1 -3.5 -4.4 -3.5 -5.2 0 -0.8 -0.4 -1.4 -1 -1.4 -0.5 0 -1 -0.7 -1 -1.5 0 -0.8 -0.4 -1.5 -0.9 -1.5 -0.5 0 -1.3 -1 -1.7 -2.2 -0.4 -1.3 -1 -2.5 -1.4 -2.8 -2.6 -1.7 -11 -22.5 -11 -27 0 -5.6 2.6 -3.3 5.5 4.8 6.2 17.7 16.5 33.3 30.6 46.6 7.9 7.4 8 7.6 5 7.6 -1.7 0 -3.1 -0.4 -3.1 -1z"/>
			<path d="M172.6 162.4 c-1.1 -1 -1.6 -3.4 -1.6 -7.4 0 -9.4 -1.5 -9 38.7 -9 l34.3 0 0 -3 c0 -1.9 0.5 -3 1.4 -3 1.5 0 2.6 3 2.6 7.3 l0 2.7 -35.5 0 -35.5 0 -1.6 2.5 c-2.1 3.3 -0.6 7.1 3.1 8.1 1.4 0.3 2.5 1.2 2.5 2 0 2 -6.4 1.8 -8.4 -0.2z"/>
			<path d="M243 131 c0 -5.3 0.2 -6 2 -6 1.8 0 2 0.7 2 6 0 5.3 -0.2 6 -2 6 -1.8 0 -2 -0.7 -2 -6z"/>
			<path d="M174 124.5 c0 -0.8 -0.7 -1.5 -1.5 -1.5 -1.2 0 -1.5 -1.3 -1.5 -5.8 0 -7.2 1.7 -9.2 7.8 -9.2 5.1 0 5.9 2.5 1.2 3.5 -6.7 1.5 -7.4 9.6 -1.1 11 4.7 1 4 3.5 -0.9 3.5 -2.9 0 -4 -0.4 -4 -1.5z"/>
		</g>
		<g fill="#fff3ab">
			<path d="M90 343.5 l0 -7.5 24.5 0 24.5 0 0 7.5 0 7.5 -24.5 0 -24.5 0 0 -7.5z"/>
			<path d="M381 230 c12.4 -6.1 21.1 -12.2 30.4 -21.4 14.4 -14.3 23.8 -30.8 29.4 -51.5 2.3 -8.5 2.6 -11.5 2.6 -26.6 0 -15.2 -0.3 -18 -2.7 -26.8 -8.9 -33.2 -31.2 -59.3 -63.2 -73.9 l-6 -2.8 4.5 0.6 c9.4 1.2 23.7 5.6 32.4 9.9 26.3 12.9 45.6 36.2 54.2 65.2 3.6 12 4.5 34.7 2 47.3 -6.5 32.1 -26.2 58.4 -54.6 73 -10.1 5.1 -22.7 9.3 -32 10.5 l-5.5 0.7 8.5 -4.2z"/>
		</g>
		<g fill="#e2e2e2">
			<path d="M137 480.2 c8.1 -8.4 11 -17.2 11 -33.4 l0 -7.8 57.1 0 57.1 0 -0.4 13.8 c-0.3 12.1 -0.7 14.3 -2.9 19.2 -1.4 3.1 -4.1 7.3 -5.9 9.3 l-3.2 3.7 -58.7 0 -58.7 0 4.6 -4.8z"/>
			<path d="M270 483.3 c0 -1 2 -3.8 4.5 -6.2 2.5 -2.5 5.7 -7 7.2 -10 2.3 -4.8 2.8 -7.2 3.1 -16.8 l0.4 -11.3 46 0 46 0 -0.4 13.3 c-0.5 15.2 -2.4 21.6 -8.4 28.5 l-3.6 4.2 -47.4 0 c-44.5 0 -47.4 -0.1 -47.4 -1.7z"/>
			<path d="M82.1 478.5 c-2.3 -2.5 -5.2 -6.7 -6.4 -9.3 l-2.2 -4.7 -0.3 -193.3 c-0.2 -167.5 0 -193.7 1.2 -196.7 l1.5 -3.5 81.5 0 81.6 0 0 20 0 20 -30.8 0 c-28.7 0 -31 0.1 -32.5 1.8 -2.2 2.4 -2.1 6.5 0.1 8.5 1.6 1.5 5.4 1.7 32.5 1.7 l30.7 0 0 13 0 13 -30.3 0 c-33.5 0 -34.7 0.2 -34.7 6 0 6 0.1 6 34.1 6 l30.9 0 0 31 0 31 -30.8 0 c-28.7 0 -31 0.1 -32.5 1.8 -2.2 2.4 -2.1 6.5 0.1 8.5 1.6 1.5 5.4 1.7 32.5 1.7 l30.7 0 0 13 0 13 -30.5 0 c-29.2 0 -30.6 0.1 -32.5 2 -2.3 2.3 -2.6 5.8 -0.6 8.6 1.4 1.8 3.1 1.9 54.2 1.9 33.2 0 53.5 -0.4 54.7 -1 4.7 -2.4 4.8 -8.2 0.2 -10.3 -1.4 -0.7 -6.4 -1.2 -11 -1.2 l-8.5 0 0 -13 0 -13 22.9 0 22.9 0 7.7 3.1 c7.3 2.9 18.6 6 26.8 7.4 4.9 0.8 5.1 3.5 0.2 3.5 l-3.5 0 0 89 0 89 -38.5 0 -38.5 0 0 -19 0 -19 -13 0 -13 0 0 19 0 19 -61.2 0 c-59 0 -61.4 0.1 -64.5 2 -5 3 -6 6.1 -6.5 20 -0.6 17.1 -3.3 23.1 -14.2 31.1 -2.1 1.6 -4.5 2.9 -5.1 2.9 -0.7 0 -3.1 -2 -5.4 -4.5z m67.5 -83.6 c1.8 -2 1.9 -4.1 1.9 -35.1 0 -31.5 -0.1 -33 -1.9 -34.4 -1.6 -1.1 -8.1 -1.4 -35.2 -1.4 -28.9 0 -33.5 0.2 -34.8 1.6 -1.4 1.3 -1.6 5.9 -1.6 34.6 0 29.4 0.2 33.3 1.7 35 1.5 1.7 3.9 1.8 34.8 1.8 32.5 0 33.2 0 35.1 -2.1z m136.4 -11.4 c2.8 -2.5 2.5 -6 -0.6 -8.4 -2.3 -1.8 -4.1 -2.1 -11.5 -2.1 l-8.9 0 0 -13 0 -13 28.7 0 c25.2 0 28.9 -0.2 30.5 -1.7 2.4 -2.1 2.3 -5.8 -0.2 -8.3 -1.9 -1.9 -3.3 -2 -30.5 -2 l-28.5 0 0 -29 0 -29 -13 0 -13 0 0 29 0 29 -30.3 0 c-25.8 0 -30.6 0.2 -32.5 1.6 -2.6 1.8 -2.9 6 -0.5 8.6 1.5 1.7 3.8 1.8 32.5 1.8 l30.8 0 0 13 0 13 -30.5 0 c-29.2 0 -30.6 0.1 -32.5 2 -3.3 3.3 -2.2 8.8 2 10.3 0.8 0.3 25 0.4 53.8 0.3 48.4 -0.3 52.4 -0.5 54.2 -2.1z m-136.4 -100.6 c1.8 -2 1.9 -4.1 1.9 -34.9 0 -26.2 -0.3 -33 -1.4 -34.3 -1.2 -1.5 -4.9 -1.7 -35.2 -1.7 -29.4 0 -34 0.2 -35.3 1.6 -1.4 1.3 -1.6 5.9 -1.6 34.9 0 33.4 0 33.4 2.2 34.9 1.9 1.4 7 1.6 34.9 1.6 31.9 0 32.6 0 34.5 -2.1z m-0.5 -111.8 l2.4 -1.9 0 -33 c0 -26.4 -0.3 -33.2 -1.4 -34.5 -1.2 -1.5 -4.9 -1.7 -35.2 -1.7 -29.4 0 -34 0.2 -35.3 1.6 -1.4 1.3 -1.6 5.9 -1.6 34.9 0 33.4 0 33.4 2.2 34.9 1.9 1.4 6.9 1.6 34.4 1.6 30.2 0 32.3 -0.1 34.5 -1.9z"/>
			<path d="M385 479.6 c0 -2.1 0.5 -2.6 2.5 -2.6 1.8 0 2.5 -0.5 2.5 -2 0 -1.3 0.7 -2 2 -2 1.5 0 2 -0.7 2 -2.5 0 -2 0.5 -2.5 2.6 -2.5 2 0 2.5 0.4 2 1.6 -1.3 3.5 -8.5 10.7 -12 12 -1.2 0.5 -1.6 0 -1.6 -2z"/>
			<path d="M399 456.5 c0 -2.8 0.4 -3.5 2 -3.5 2.1 0 2.4 1 1.4 4.8 -1 3.6 -3.4 2.7 -3.4 -1.3z"/>
			<path d="M352 248 c0 -2.1 1 -2.4 4.8 -1.4 3.6 1 2.7 3.4 -1.3 3.4 -2.8 0 -3.5 -0.4 -3.5 -2z"/>
			<path d="M265 209.5 c0 -7.4 0.4 -13.5 0.9 -13.5 0.4 0 2.1 1.9 3.6 4.3 1.6 2.3 7 8.4 12.2 13.5 l9.4 9.2 -13.1 0 -13 0 0 -13.5z"/>
			<path d="M259 189.5 c0 -4.3 1 -4.4 3.3 -0.6 2.2 3.8 2.2 4.1 -0.8 4.1 -2.2 0 -2.5 -0.4 -2.5 -3.5z"/>
			<path d="M244 146 c0 -2 0.5 -3 1.5 -3 0.8 0 1.5 0.3 1.5 0.8 0 0.4 0.3 1.7 0.6 3 0.5 1.8 0.2 2.2 -1.5 2.2 -1.7 0 -2.1 -0.6 -2.1 -3z"/>
			<path d="M243 131.5 c0 -7.5 0.2 -8.5 1.8 -8.5 1.6 0 1.8 1 1.9 8.5 0 7.6 -0.2 8.5 -1.8 8.5 -1.7 0 -1.9 -0.9 -1.9 -8.5z"/>
			<path d="M245 108 c0 -2.3 0.4 -3 2 -3 2 0 2.5 1.5 1.4 4.4 -1.1 2.8 -3.4 1.8 -3.4 -1.4z"/>
			<path d="M248 97.3 c0 -5.1 1.1 -7.3 3.5 -7.3 l2.3 0 -1.6 5 c-1.7 5.4 -4.2 6.8 -4.2 2.3z"/>
			<path d="M252 85.8 c0 -4.3 1.2 -6.1 3.8 -5.6 l2.1 0.3 -1.9 4.3 c-2.3 5 -4 5.4 -4 1z"/>
			<path d="M258 74 c0 -2.6 0.4 -3 2.6 -3 l2.5 0 -1.8 3 c-0.9 1.7 -2.1 3 -2.5 3 -0.4 0 -0.8 -1.3 -0.8 -3z"/>
		</g>
		<g fill="#ffffff">
			<path d="M248.4 480 c7.8 -8.3 9.9 -14.3 10.4 -28.7 l0.4 -12.3 14.5 0 14.5 0 -0.4 12.8 c-0.3 11.3 -0.7 13.3 -3.1 18.2 -1.4 3.1 -4.8 7.7 -7.4 10.3 l-4.7 4.7 -14.4 0 -14.5 0 4.7 -5z"/>
			<path d="M363.6 479.7 c7.3 -7.6 9.6 -14 10.2 -29 l0.4 -11.8 14.2 0.3 14.1 0.3 -0.1 11.3 c-0.2 10 -0.5 11.8 -2.8 16.7 -3.3 6.7 -11 13.8 -17.3 15.9 -3 1 -8.1 1.6 -14.3 1.6 l-9.6 0 5.2 -5.3z"/>
			<path d="M236 406.5 l0 -20.5 16 0 16 0 0 20.5 0 20.5 -16 0 -16 0 0 -20.5z"/>
			<path d="M339 335.6 l0 -91.4 3.7 0.8 c2 0.5 8.1 1.2 13.5 1.6 l9.8 0.7 0 89.8 0 89.9 -13.5 0 -13.5 0 0 -91.4z"/>
			<path d="M236 360 l0 -13 16 0 16 0 0 13 0 13 -16 0 -16 0 0 -13z"/>
			<path d="M236 304.5 l0 -30.5 16 0 16 0 0 30.5 0 30.5 -16 0 -16 0 0 -30.5z"/>
			<path d="M236 248 l0 -13 16 0 16 0 0 13 0 13 -16 0 -16 0 0 -13z"/>
			<path d="M236 192 l0 -31 7.3 0 7.3 0 1.3 4.8 c1.6 6 9 21.7 13 27.6 3.1 4.4 3.1 4.6 3.1 17 l0 12.6 -16 0 -16 0 0 -31z"/>
			<path d="M236 136 l0 -13 5.3 0 5.2 0 0.1 10.5 c0.1 5.8 0.5 11.6 0.8 13 0.6 2.5 0.5 2.5 -5.4 2.5 l-6 0 0 -13z"/>
			<path d="M236 91 l0 -20 13.4 0 13.4 0 -3.3 6.3 c-4.2 7.8 -7.7 17.1 -10 26.5 l-1.7 7.2 -5.9 0 -5.9 0 0 -20z"/>
		</g>
	</g>
</svg>