<svg width="450" height="450" xmlns="http://www.w3.org/2000/svg">
	<g>
		<g id="svg_1">
			<g id="svg_2">
				<g id="svg_3">
					<path fill="#164ace" d="m382.80655,112.02068c-1.84372,-3.08349 -4.88402,-5.24546 -8.39206,-5.95105l-186.15488,-44.87838c-6.13509,-1.18928 -12.18779,2.19984 -14.31122,8.06186l-70.95683,180.2623l23.6886,8.63258l67.24415,-171.4005l161.74673,41.27466c-10.10157,31.31594 -34.13898,96.6785 -57.18111,157.53775c-20.08887,53.09969 -31.6488,71.28305 -53.62058,74.9964c-0.02591,-0.02591 -0.04983,-0.05116 -0.04983,-0.08969c-44.90429,6.29455 -44.09837,-50.95168 -44.09837,-50.95168l-143.41189,-57.9299c-10.19127,64.59584 39.44357,80.13223 39.44357,80.13223l104.99748,47.67086c0.02525,0.01329 16.41605,7.82068 34.23067,7.01808c48.05156,-1.13148 64.93801,-36.02256 86.09656,-91.92138c30.56782,-80.78733 61.59341,-171.30815 61.89837,-172.26821c1.09361,-3.42499 0.66174,-7.11907 -1.16935,-10.19592z" id="svg_4"/>
					<path fill="#40c91a" d="m297.95309,184.71559c1.09361,0.29898 2.22575,0.45777 3.34394,0.45777c5.53048,0 10.59057,-3.68743 12.14129,-9.28236c1.84305,-6.72043 -2.13672,-13.66277 -8.84784,-15.49386l-54.63579,-16.86319c-6.63671,-1.83707 -13.65679,2.11081 -15.48788,8.82459c-1.83176,6.71976 2.11147,13.66277 8.84851,15.5005l54.63778,16.85655z" id="svg_5"/>
					<path fill="#e81010" d="m212.58537,202.85975c-2.18987,6.61878 1.36535,13.74648 7.96552,15.95562l54.34943,19.42181c1.3195,0.43917 2.61642,0.6365 3.92462,0.64381c5.30127,0.0279 10.26701,-3.31603 12.03698,-8.61065c2.19585,-6.60084 -1.35272,-13.73917 -7.97947,-15.94698l-54.32884,-19.40918c-6.63937,-2.19718 -13.75246,1.35737 -15.96824,7.94559z" id="svg_6"/>
					<path fill="#40c91a" d="m207.80367,247.53814c-6.61213,-2.21246 -13.7518,1.3979 -15.91376,8.03661c-2.17392,6.58688 1.44973,13.73319 8.06186,15.89449l54.46305,19.34141c1.31219,0.44449 2.61907,0.63517 3.94389,0.63517c5.28931,0 10.22316,-3.36852 11.96588,-8.65915c2.17326,-6.62475 -1.4371,-13.75778 -8.04923,-15.91974l-54.47168,-19.32879z" id="svg_7"/>
					<path fill="#40c91a" d="m205.78721,128.83072c7.71836,0 13.98102,6.09058 13.98102,13.59301c0,7.50841 -6.26266,13.59234 -13.98102,13.59234c-7.72434,0 -13.987,-6.0846 -13.987,-13.59234c0.00066,-7.50243 6.26266,-13.59301 13.987,-13.59301z" id="svg_8"/>
					<path fill="#e81010" d="m186.00862,179.36183c7.725,0 13.98102,6.0846 13.98102,13.58636c0,7.49579 -6.25601,13.57972 -13.98102,13.57972c-7.72434,0 -13.987,-6.08393 -13.987,-13.57972c0,-7.5011 6.26266,-13.58636 13.987,-13.58636z" id="svg_9"/>
					<path fill="#40c91a" d="m164.91384,231.49549c7.725,0 13.987,6.09124 13.987,13.60629c0,7.5011 -6.26199,13.57905 -13.987,13.57905c-7.72434,0 -13.987,-6.07662 -13.987,-13.57905c0,-7.51505 6.26266,-13.60629 13.987,-13.60629z" id="svg_10"/>
				</g>
			</g>
		</g>
	</g>
</svg>